<?xml version="1.0" encoding="UTF-8"?>
<svg id="Layer_1" xmlns="http://www.w3.org/2000/svg" xmlns:xlink="http://www.w3.org/1999/xlink" xmlns:rdf="http://www.w3.org/1999/02/22-rdf-syntax-ns#" xmlns:dc="http://purl.org/dc/elements/1.1/" xmlns:cc="http://creativecommons.org/ns#" version="1.1" viewBox="0 0 77.4 80">
  <!-- Generator: Adobe Illustrator 29.1.0, SVG Export Plug-In . SVG Version: 2.1.0 Build 142)  -->
  <defs>
    <style>
      .st0 {
        fill: url(#linear-gradient1);
      }

      .st1 {
        fill: url(#radial-gradient);
      }

      .st2 {
        fill: url(#linear-gradient);
      }

      .st3 {
        fill: #1c1131;
      }

      .st4 {
        fill: url(#radial-gradient1);
      }

      .st5 {
        fill: url(#radial-gradient6);
      }

      .st6 {
        fill: url(#radial-gradient9);
      }

      .st7 {
        fill: url(#radial-gradient8);
      }

      .st8 {
        fill: url(#radial-gradient3);
      }

      .st9 {
        fill: url(#radial-gradient2);
      }

      .st10 {
        fill: url(#radial-gradient5);
      }

      .st11 {
        fill: url(#radial-gradient4);
      }

      .st12 {
        fill: url(#radial-gradient7);
      }
    </style>
    <linearGradient id="linear-gradient" x1="74.7" y1="65.7" x2="10.4" y2="3.6" gradientTransform="translate(-4.5 77.4) scale(1 -1)" gradientUnits="userSpaceOnUse">
      <stop offset="0" stop-color="#fff44f"/>
      <stop offset=".1" stop-color="#ffe847"/>
      <stop offset=".2" stop-color="#ffc830"/>
      <stop offset=".4" stop-color="#ff980e"/>
      <stop offset=".4" stop-color="#ff8b16"/>
      <stop offset=".5" stop-color="#ff672a"/>
      <stop offset=".5" stop-color="#ff3647"/>
      <stop offset=".7" stop-color="#e31587"/>
    </linearGradient>
    <radialGradient id="radial-gradient" cx="-7903" cy="8593" fx="-7903" fy="8593" r="80.8" gradientTransform="translate(7827.1 8447.8) scale(1 -1)" gradientUnits="userSpaceOnUse">
      <stop offset=".1" stop-color="#ffbd4f"/>
      <stop offset=".2" stop-color="#ffac31"/>
      <stop offset=".2" stop-color="#ff9d17"/>
      <stop offset=".3" stop-color="#ff980e"/>
      <stop offset=".4" stop-color="#ff563b"/>
      <stop offset=".5" stop-color="#ff3750"/>
      <stop offset=".7" stop-color="#f5156c"/>
      <stop offset=".8" stop-color="#eb0878"/>
      <stop offset=".9" stop-color="#e50080"/>
    </radialGradient>
    <radialGradient id="radial-gradient1" cx="-7933" cy="8560" fx="-7933" fy="8560" r="80.8" gradientTransform="translate(7827.1 8447.8) scale(1 -1)" gradientUnits="userSpaceOnUse">
      <stop offset=".3" stop-color="#960e18"/>
      <stop offset=".4" stop-color="#b11927" stop-opacity=".7"/>
      <stop offset=".4" stop-color="#db293d" stop-opacity=".3"/>
      <stop offset=".5" stop-color="#f5334b" stop-opacity="0"/>
      <stop offset=".5" stop-color="#ff3750" stop-opacity="0"/>
    </radialGradient>
    <radialGradient id="radial-gradient2" cx="-7923" cy="8611" fx="-7923" fy="8611" r="58.5" gradientTransform="translate(7827.1 8447.8) scale(1 -1)" gradientUnits="userSpaceOnUse">
      <stop offset=".1" stop-color="#fff44f"/>
      <stop offset=".3" stop-color="#ffdc3e"/>
      <stop offset=".5" stop-color="#ff9d12"/>
      <stop offset=".5" stop-color="#ff980e"/>
    </radialGradient>
    <radialGradient id="radial-gradient3" cx="-7942" cy="8539" fx="-7942" fy="8539" r="38.5" gradientTransform="translate(7827.1 8447.8) scale(1 -1)" gradientUnits="userSpaceOnUse">
      <stop offset=".4" stop-color="#3a8ee6"/>
      <stop offset=".5" stop-color="#5c79f0"/>
      <stop offset=".7" stop-color="#9059ff"/>
      <stop offset="1" stop-color="#c139e6"/>
    </radialGradient>
    <radialGradient id="radial-gradient4" cx="-7989.6" cy="8563.1" fx="-7989.6" fy="8563.1" r="20.4" gradientTransform="translate(9979.3 7760.6) rotate(-13.6) scale(1 -1.1)" gradientUnits="userSpaceOnUse">
      <stop offset=".2" stop-color="#9059ff" stop-opacity="0"/>
      <stop offset=".3" stop-color="#8c4ff3" stop-opacity="0"/>
      <stop offset=".7" stop-color="#7716a8" stop-opacity=".4"/>
      <stop offset="1" stop-color="#6e008b" stop-opacity=".6"/>
    </radialGradient>
    <radialGradient id="radial-gradient5" cx="-7934" cy="8596" fx="-7934" fy="8596" r="27.7" gradientTransform="translate(7827.1 8447.8) scale(1 -1)" gradientUnits="userSpaceOnUse">
      <stop offset="0" stop-color="#ffe226"/>
      <stop offset=".1" stop-color="#ffdb27"/>
      <stop offset=".3" stop-color="#ffc82a"/>
      <stop offset=".5" stop-color="#ffa930"/>
      <stop offset=".7" stop-color="#ff7e37"/>
      <stop offset=".8" stop-color="#ff7139"/>
    </radialGradient>
    <radialGradient id="radial-gradient6" cx="-7912" cy="8614" fx="-7912" fy="8614" r="118.1" gradientTransform="translate(7827.1 8447.8) scale(1 -1)" gradientUnits="userSpaceOnUse">
      <stop offset=".1" stop-color="#fff44f"/>
      <stop offset=".5" stop-color="#ff980e"/>
      <stop offset=".6" stop-color="#ff5634"/>
      <stop offset=".7" stop-color="#ff3647"/>
      <stop offset=".9" stop-color="#e31587"/>
    </radialGradient>
    <radialGradient id="radial-gradient7" cx="-7902.3" cy="9118.1" fx="-7902.3" fy="9118.1" r="86.5" gradientTransform="translate(-4984.1 8334.3) rotate(84) scale(1 -.6)" gradientUnits="userSpaceOnUse">
      <stop offset="0" stop-color="#fff44f"/>
      <stop offset="0" stop-color="#ffe847"/>
      <stop offset=".2" stop-color="#ffc830"/>
      <stop offset=".3" stop-color="#ff980e"/>
      <stop offset=".4" stop-color="#ff8b16"/>
      <stop offset=".5" stop-color="#ff672a"/>
      <stop offset=".6" stop-color="#ff3647"/>
      <stop offset=".7" stop-color="#e31587"/>
    </radialGradient>
    <radialGradient id="radial-gradient8" cx="-7934" cy="8586" fx="-7934" fy="8586" r="73.7" gradientTransform="translate(7827.1 8447.8) scale(1 -1)" gradientUnits="userSpaceOnUse">
      <stop offset=".1" stop-color="#fff44f"/>
      <stop offset=".5" stop-color="#ff980e"/>
      <stop offset=".6" stop-color="#ff5634"/>
      <stop offset=".7" stop-color="#ff3647"/>
      <stop offset=".9" stop-color="#e31587"/>
    </radialGradient>
    <radialGradient id="radial-gradient9" cx="-7915" cy="8582" fx="-7915" fy="8582" r="80.7" gradientTransform="translate(7827.1 8447.8) scale(1 -1)" gradientUnits="userSpaceOnUse">
      <stop offset="0" stop-color="#fff44f"/>
      <stop offset=".2" stop-color="#ffe141"/>
      <stop offset=".5" stop-color="#ffaf1e"/>
      <stop offset=".6" stop-color="#ff980e"/>
    </radialGradient>
    <linearGradient id="linear-gradient1" x1="74" y1="66" x2="19.2" y2="11.2" gradientTransform="translate(-4.5 77.4) scale(1 -1)" gradientUnits="userSpaceOnUse">
      <stop offset=".2" stop-color="#fff44f" stop-opacity=".8"/>
      <stop offset=".3" stop-color="#fff44f" stop-opacity=".6"/>
      <stop offset=".5" stop-color="#fff44f" stop-opacity=".2"/>
      <stop offset=".6" stop-color="#fff44f" stop-opacity="0"/>
    </linearGradient>
  </defs>
  <rect class="st3" width="77.4" height="80"/>
  <g>
    <path class="st2" d="M74,27.1c-1.7-4-5-8.3-7.6-9.6,1.9,3.6,3.2,7.5,3.9,11.5h0c-4.3-10.7-11.6-15-17.6-24.4-.3-.5-.6-1-.9-1.5-.2-.3-.3-.5-.4-.8-.2-.5-.4-1-.6-1.5,0,0,0,0,0,0,0,0,0,0,0,0,0,0,0,0,0,0s0,0,0,0h0c-9.6,5.6-12.8,15.9-13.1,21.1-3.8.3-7.5,1.7-10.5,4-.3-.3-.6-.5-1-.7-.9-3-.9-6.2-.1-9.3-3.5,1.7-6.6,4.1-9.2,7.1h0c-1.5-1.9-1.4-8.2-1.3-9.5-.4.2-.9.4-1.3.7-1.3,1-2.6,2-3.7,3.2-1.3,1.3-2.5,2.7-3.6,4.3h0s0,0,0,0c-2.4,3.5-4.2,7.4-5.1,11.5v.3c-.1.3-.4,2-.4,2.4,0,0,0,0,0,0-.3,1.7-.5,3.5-.6,5.2v.2c0,21,17.1,38,38.1,38,18.5,0,34.3-13.3,37.4-31.6,0-.5.1-1,.2-1.5.8-6.5,0-13.1-2.5-19.1h0ZM30.1,56.9c.2,0,.3.2.5.3h0c-.2,0-.4-.2-.6-.3ZM70.2,29.1h0s0,0,0,0h0Z"/>
    <path class="st1" d="M74,27.1c-1.7-4-5-8.3-7.6-9.6,1.9,3.6,3.2,7.5,3.9,11.5h0s0,0,0,0c2.9,8.4,2.5,17.6-1.2,25.7-4.4,9.4-14.9,19-31.4,18.5-17.9-.5-33.6-13.8-36.5-31.1-.5-2.7,0-4.1.3-6.3-.4,1.7-.6,3.5-.6,5.3v.2c0,21,17.1,38,38.1,38,18.5,0,34.3-13.3,37.4-31.6,0-.5.1-1,.2-1.5.8-6.5,0-13.1-2.5-19.1h0Z"/>
    <path class="st4" d="M74,27.1c-1.7-4-5-8.3-7.6-9.6,1.9,3.6,3.2,7.5,3.9,11.5h0s0,0,0,0c2.9,8.4,2.5,17.6-1.2,25.7-4.4,9.4-14.9,19-31.4,18.5-17.9-.5-33.6-13.8-36.5-31.1-.5-2.7,0-4.1.3-6.3-.4,1.7-.6,3.5-.6,5.3v.2c0,21,17.1,38,38.1,38,18.5,0,34.3-13.3,37.4-31.6,0-.5.1-1,.2-1.5.8-6.5,0-13.1-2.5-19.1h0Z"/>
    <path class="st9" d="M55.5,31.6c0,0,.2.1.2.2-1-1.7-2.1-3.2-3.5-4.6-11.8-11.8-3.1-25.6-1.6-26.4h0c-9.6,5.6-12.8,15.9-13.1,21.1.4,0,.9,0,1.3,0,6.9,0,13.3,3.7,16.7,9.7h0Z"/>
    <path class="st8" d="M38.8,33.9c0,.9-3.4,4.2-4.6,4.2-10.8,0-12.6,6.5-12.6,6.5.5,5.5,4.3,10.1,9,12.5.2.1.4.2.6.3.4.2.7.3,1.1.5,1.6.6,3.3.9,5,1,19,.9,22.6-22.7,9-29.5,3.2-.4,6.5.4,9.2,2.2-3.4-6-9.8-9.7-16.7-9.7-.5,0-.9,0-1.3,0-3.8.3-7.5,1.7-10.5,4,.6.5,1.2,1.1,2.6,2.5,2.6,2.5,9.2,5.2,9.2,5.5h0Z"/>
    <path class="st11" d="M38.8,33.9c0,.9-3.4,4.2-4.6,4.2-10.8,0-12.6,6.5-12.6,6.5.5,5.5,4.3,10.1,9,12.5.2.1.4.2.6.3.4.2.7.3,1.1.5,1.6.6,3.3.9,5,1,19,.9,22.6-22.7,9-29.5,3.2-.4,6.5.4,9.2,2.2-3.4-6-9.8-9.7-16.7-9.7-.5,0-.9,0-1.3,0-3.8.3-7.5,1.7-10.5,4,.6.5,1.2,1.1,2.6,2.5,2.6,2.5,9.2,5.2,9.2,5.5h0Z"/>
    <path class="st10" d="M25.2,24.7c.3.2.6.4.8.5-.9-3-.9-6.2-.1-9.3-3.5,1.7-6.6,4.1-9.2,7.1.2,0,5.7-.1,8.5,1.7Z"/>
    <path class="st5" d="M1,42.1c2.9,17.4,18.7,30.6,36.5,31.1,16.5.5,27.1-9.1,31.4-18.5,3.7-8.1,4.1-17.3,1.2-25.7h0c0,0,0,0,0,0h0c1.4,8.9-3.1,17.4-10.1,23.2h0c-13.7,11.2-26.7,6.8-29.4,5-.2,0-.4-.2-.6-.3-8-3.8-11.3-11.1-10.5-17.3-3.9,0-7.4-2.2-9-5.7,4.3-2.6,9.5-2.8,14-.6,4.5,2,9.6,2.2,14.3.6,0-.3-6.6-2.9-9.2-5.5-1.4-1.4-2-2-2.6-2.5-.3-.3-.6-.5-1-.7-.2-.2-.5-.3-.8-.5-2.8-1.8-8.3-1.7-8.5-1.7h0c-1.5-1.9-1.4-8.2-1.3-9.5-.4.2-.9.4-1.3.7-1.3,1-2.6,2-3.7,3.2-1.3,1.3-2.5,2.7-3.6,4.3h0s0,0,0,0c-2.4,3.5-4.2,7.4-5.1,11.5,0,0-1.4,6-.7,9.1h0Z"/>
    <path class="st12" d="M52.2,27.1c1.4,1.4,2.6,2.9,3.5,4.6.2.2.4.3.6.5,8.6,8,4.1,19.2,3.8,20,7-5.8,11.5-14.3,10.1-23.1-4.3-10.7-11.6-15.1-17.6-24.5-.3-.5-.6-1-.9-1.5-.2-.3-.3-.5-.4-.8-.2-.5-.4-1-.6-1.5,0,0,0,0,0,0,0,0,0,0,0,0,0,0,0,0,0,0s0,0,0,0c-1.5.7-10.2,14.5,1.6,26.3h0Z"/>
    <path class="st7" d="M56.3,32.2c-.2-.2-.4-.3-.6-.5,0,0-.2-.1-.2-.2-2.7-1.9-5.9-2.6-9.2-2.2,13.7,6.8,10,30.4-9,29.5-1.7,0-3.4-.4-5-1-.4-.1-.7-.3-1.1-.5-.2,0-.4-.2-.6-.3h0c2.6,1.8,15.7,6.2,29.4-4.9h0c.3-.8,4.9-12.1-3.8-20h0Z"/>
    <path class="st6" d="M21.7,44.7s1.8-6.5,12.6-6.5,4.5-3.3,4.6-4.2c-4.7,1.7-9.8,1.5-14.3-.6-4.4-2.3-9.7-2-14,.6,1.6,3.5,5.2,5.7,9,5.7-.7,6.2,2.6,13.5,10.5,17.3.2,0,.3.2.5.3-4.6-2.4-8.5-6.9-9-12.5h0Z"/>
    <path class="st0" d="M74,27.1c-1.7-4-5-8.3-7.6-9.6,1.9,3.6,3.2,7.5,3.9,11.5h0c-4.3-10.7-11.6-15-17.6-24.4-.3-.5-.6-1-.9-1.5-.2-.3-.3-.5-.4-.8-.2-.5-.4-1-.6-1.5,0,0,0,0,0,0,0,0,0,0,0,0,0,0,0,0,0,0s0,0,0,0h0c-9.6,5.6-12.8,15.9-13.1,21.1.4,0,.9,0,1.3,0,6.9,0,13.3,3.7,16.7,9.7-2.7-1.9-5.9-2.6-9.2-2.2,13.7,6.8,10,30.4-9,29.5-1.7,0-3.4-.4-5-1-.4-.1-.7-.3-1.1-.5-.2,0-.4-.2-.6-.3h0c-.2,0-.4-.2-.6-.3.2,0,.3.2.5.3-4.6-2.4-8.5-6.9-9-12.5,0,0,1.8-6.5,12.6-6.5s4.5-3.3,4.6-4.2c0-.3-6.6-2.9-9.2-5.5-1.4-1.4-2-2-2.6-2.5-.3-.3-.6-.5-1-.7-.9-3-.9-6.2-.1-9.3-3.5,1.7-6.6,4.1-9.2,7.1h0c-1.5-1.9-1.4-8.2-1.3-9.5-.4.2-.9.4-1.3.7-1.3,1-2.6,2-3.7,3.2-1.3,1.3-2.5,2.7-3.6,4.3h0s0,0,0,0c-2.4,3.5-4.2,7.4-5.1,11.5v.3c-.1.3-.4,2-.5,2.4-.3,1.8-.5,3.5-.6,5.3v.2c0,21,17.1,38,38.1,38,18.5,0,34.3-13.3,37.4-31.6,0-.5.1-1,.2-1.5.8-6.5,0-13.1-2.5-19.1h0ZM70.2,29h0s0,0,0,0Z"/>
  </g>
</svg>