<?xml version="1.0" encoding="UTF-8"?>
<svg id="Layer_1" xmlns="http://www.w3.org/2000/svg" version="1.1" viewBox="0 0 64 64">
  <!-- Generator: Adobe Illustrator 29.1.0, SVG Export Plug-In . SVG Version: 2.1.0 Build 142)  -->
  <defs>
    <style>
      .st0 {
        fill: none;
      }

      .st1 {
        fill: #4285f4;
      }

      .st2 {
        fill: #fbbc05;
      }

      .st3 {
        fill: #34a853;
      }

      .st4 {
        fill: #ea4335;
      }
    </style>
  </defs>
  <path class="st1" d="M62.7,32.7c0-2.3-.2-4.5-.6-6.5h-30.1v12.4h17.2c-.8,4-3,7.4-6.4,9.6v8.1h10.4c6.1-5.6,9.5-13.8,9.5-23.5Z"/>
  <path class="st3" d="M32,64c8.6,0,15.9-2.9,21.2-7.7l-10.4-8.1c-2.9,1.9-6.5,3.1-10.8,3.1-8.3,0-15.4-5.6-17.9-13.2H3.4v8.3c5.3,10.4,16.1,17.6,28.6,17.6Z"/>
  <path class="st2" d="M14.1,38.1c-.6-1.9-1-4-1-6.1s.4-4.2,1-6.1v-8.3H3.4c-2.2,4.3-3.4,9.2-3.4,14.3s1.3,10,3.4,14.3l8.3-6.5s2.4-1.8,2.4-1.8Z"/>
  <path class="st4" d="M32,12.7c4.7,0,8.9,1.6,12.2,4.8l9.2-9.2C47.9,3.2,40.6,0,32,0,19.5,0,8.7,7.2,3.4,17.7l10.6,8.3c2.5-7.6,9.6-13.2,17.9-13.2Z"/>
  <path class="st0" d="M0,0h64v64H0V0Z"/>
</svg>