<?xml version="1.0" encoding="UTF-8"?>
<svg id="Layer_1" xmlns="http://www.w3.org/2000/svg" version="1.1" viewBox="0 0 38.2 38.1">
  <!-- Generator: Adobe Illustrator 29.1.0, SVG Export Plug-In . SVG Version: 2.1.0 Build 142)  -->
  <defs>
    <style>
      .st0 {
        fill: #fab432;
      }
    </style>
  </defs>
  <path class="st0" d="M19,0C8.5,0,0,8.5,0,19s6.3,16.6,14.8,18.6v-1.6c0-10,5.5-19.2,14.3-23.9l1.7,3.2c-7.7,4.1-12.4,12-12.4,20.7s0,1.4.1,2.1h1.4c-.1-.7-.1-1.4-.1-2.1,0-3.7.9-7.2,2.6-10.3,1.7-3,4.1-5.6,7-7.5l1.7,2.7c-2.5,1.6-4.5,3.8-5.9,6.3-1.5,2.7-2.2,5.6-2.2,8.8s0,1.1.1,1.7c8.6-1.8,15.1-9.5,15.1-18.6-.1-10.6-8.7-19.1-19.2-19.1ZM14.1,30.3c-1.8-2.6-4.3-4.7-7.3-6.1l1.3-2.9c2.7,1.3,5.1,3,7,5.2-.4,1.3-.8,2.5-1,3.8ZM15.7,24.9q0,.1-.1.2c-2.6-2.9-5.8-5.1-9.4-6.4l1.2-3.4c3.7,1.4,7.1,3.6,9.9,6.4-.5,1-1.1,2.1-1.6,3.2ZM17.8,20.5c-.9-1-1.7-1.9-3.2-2.7V7.5h3.2v13ZM22.8,14.7s-.8.8-1.2,1.2c-.9.9-1.7,1.7-2.3,2.7V3.1h3.5v11.6Z"/>
</svg>