<?xml version="1.0" encoding="UTF-8"?>
<svg xmlns="http://www.w3.org/2000/svg" xmlns:xlink="http://www.w3.org/1999/xlink" xmlns:svg="http://www.w3.org/2000/svg" xmlns:sodipodi="http://sodipodi.sourceforge.net/DTD/sodipodi-0.dtd" xmlns:rdf="http://www.w3.org/1999/02/22-rdf-syntax-ns#" xmlns:inkscape="http://www.inkscape.org/namespaces/inkscape" xmlns:dc="http://purl.org/dc/elements/1.1/" xmlns:cc="http://creativecommons.org/ns#" version="1.1" viewBox="0 0 400 103.45">
  <defs>
    <style>
      .cls-1 {
        fill: url(#linear-gradient-2);
      }

      .cls-2 {
        fill: url(#linear-gradient);
      }

      .cls-3 {
        fill: #003f79;
      }
    </style>
    <linearGradient id="linear-gradient" x1="-97.45" y1="471.4" x2="-97.4" y2="471.49" gradientTransform="translate(-119551.05 126795.11) rotate(-150) scale(415.33 359.92)" gradientUnits="userSpaceOnUse">
      <stop offset="0" stop-color="#f39700"/>
      <stop offset="1" stop-color="#ffdb00"/>
    </linearGradient>
    <linearGradient id="linear-gradient-2" x1="-94.18" y1="471.51" x2="-93.98" y2="471.51" gradientTransform="translate(173353.21 16646.91) rotate(90) scale(176.14 366.86)" gradientUnits="userSpaceOnUse">
      <stop offset="0" stop-color="#f29400"/>
      <stop offset="1" stop-color="#ffe500"/>
    </linearGradient>
  </defs>
  <!-- Generator: Adobe Illustrator 28.7.1, SVG Export Plug-In . SVG Version: 1.2.0 Build 142)  -->
  <g>
    <g id="svg2711">
      <g id="_x3C_defs">
        <inkscape:perspective id="perspective2719" inkscape:persp3d-origin="372.04724 : 350.78739 : 1" inkscape:vp_x="0 : 526.18109 : 1" inkscape:vp_y="0 : 1000 : 0" inkscape:vp_z="744.09448 : 526.18109 : 1" sodipodi:type="inkscape:persp3d"/>
        <inkscape:perspective id="perspective2765" inkscape:persp3d-origin="372.04724 : 350.78739 : 1" inkscape:vp_x="0 : 526.18109 : 1" inkscape:vp_y="0 : 1000 : 0" inkscape:vp_z="744.09448 : 526.18109 : 1" sodipodi:type="inkscape:persp3d"/>
      </g>
      <sodipodi:namedview id="base" bordercolor="#666666" borderopacity="1.0" gridtolerance="10000" guidetolerance="10" inkscape:current-layer="layer1" inkscape:cx="220" inkscape:cy="60.774997" inkscape:document-units="px" inkscape:pageopacity="0.0" inkscape:pageshadow="2" inkscape:window-height="970" inkscape:window-width="1680" inkscape:window-x="-6" inkscape:window-y="-6" inkscape:zoom="3.1799998" objecttolerance="10" pagecolor="#ffffff" showgrid="false"/>
      <g id="layer1" inkscape:groupmode="layer" inkscape:label="Layer 1">
        <path id="path2777" class="cls-3" d="M172.51,56.26c0-14.16,4.18-27.47,13.85-37.68C197.94,6.38,211.95.79,227.27.79s26.78,6.23,32.59,12.06l-5.81,7.26c-3.15,3.82-5.38,5.33-8.2,5.7-2.5.33-5.05.22-8.47-1.4-2.5-1.19-6.79-2.42-11.08-2.42-16.62,0-28.95,12.71-28.95,32.35s10.81,23.93,20.31,23.93c6.41,0,12.06-2.16,14.72-3.4,2.61-1.21,5.65-1.87,7.28-1.74,3.42.28,5.59,1.29,7.77,4.98l5.38,8.27c-4.24,3.57-14.94,13.24-37.04,13.24-3.58,0-11.03.21-18.96-3.61-12.17-5.86-24.28-18.9-24.28-39.75"/>
        <path id="path2779" class="cls-3" d="M122.27,60.36l15.48-29.42,6.35,29.42h-21.84ZM63.5,31.67c-.65,4.34-3.86,11.38-20.59,11.38h-9.67s3.53-23.25,3.53-23.25l10.54-.02c16.84,0,16.89,7.5,16.19,11.89ZM156.54,2.05h-28.63l-44.27,84.12-8.2-15.35c-4.51-8.62-6.68-12.24-10.43-13.69,13.85-3.8,20.69-11.63,23.03-24.32,2.34-12.59-4.62-21-13.74-26.4-6.68-3.94-18.36-4.24-31.4-4.25H14.39L0,98.28h24.93l5.7-37.92h1.96c4.94-.01,13.25,1.48,18.09,10.79l9.94,18.63c4.07,7.9,7.17,8.5,15.64,8.5h14.29c6.25,0,12.28,0,16.02-8.01l6.52-12.5h34.76l2.72,12.42c1.52,8.03,7.82,8.14,14.39,8.08h12.33L156.54,2.05Z"/>
        <path id="path2797" class="cls-2" d="M300.49,57.78c8.15,0,13.69,3.6,18.2,9l16.89,20.15c6.03,6.99,15.21,14.68,29.28,8.86-7.93,1.56-15.91-2.02-21.78-8.86l-16.95-20.15c-4.51-5.4-10.05-9-18.2-9h-7.44Z"/>
        <path id="path2815" class="cls-1" d="M400,57.78h0s-22.22,0-22.22,0c-8.15,0-13.69,3.6-18.2,9l-15.05,17.93c6.68,7.88,19.72,12.67,25.8,5.39l18.14-21.58c4.67-5.94,9.83-9.59,11.52-10.75"/>
        <path id="path2817" class="cls-3" d="M364.91,95.79c-14.12,5.82-23.3-1.87-29.33-8.86l-16.89-20.14c-4.51-5.41-10.1-9.01-18.2-9.01h-14.77c1.74,1.16,6.84,4.81,11.57,10.76l6.46,7.71c-3.1,1.18-6.68,1.89-10.21,1.9-12.87-.09-20.59-8.65-20.69-24.07,0-18.69,12.33-31.87,28.63-31.9,12,.03,20.75,9.41,20.8,23.17,0,4.53-.82,9.16-2.01,13,3.04,1.74,5.59,4.1,7.82,6.78l9.67,11.5c6.08-8.79,9.61-20.39,9.61-32.31,0-14.43-5.92-27.18-16.51-35.11-7.66-5.8-17.11-8.47-28.14-8.46-15.64,0-30.26,6.31-40.9,17.78-9.23,9.97-13.91,22.92-13.91,37.68,0,18.12,9.83,33.25,25.42,40.3,5.38,2.44,12.11,3.06,17.87,3.06,15.32,0,22.43-3.77,27.21-6.01,6.08,6.24,14.07,8.73,24.44,8.73,9.07,0,16.3-1.9,22.05-6.52"/>
      </g>
    </g>
  </g>
</svg>