<svg width="98" height="97" xmlns="http://www.w3.org/2000/svg" xmlns:xlink="http://www.w3.org/1999/xlink" xml:space="preserve" overflow="hidden"><g transform="translate(-450 -120)"><g><g><g><g><path d="M538.8 129.4C537.4 128 528.4 129.6 520.9 131.6 523.6 133.2 526.4 135.4 529.1 138.1 531.9 140.9 534.1 143.7 535.7 146.5 537.7 138.8 540.3 130.8 538.8 129.4Z" fill="#E7533F" fill-rule="nonzero" fill-opacity="1"/><path d="M483.1 157.9 479.7 156.6C478.3 156.1 476.8 156.4 475.7 157.4L459.8 173.3C457.2 175.9 459.6 180.4 463.2 179.6L476.5 176.6C477.6 171.6 479.4 164.9 483.1 157.9Z" fill="#E7533F" fill-rule="nonzero" fill-opacity="1"/><path d="M509.6 184C502.9 187.5 496.5 189.4 491.3 190.4L488.2 204.6C487.4 208.2 491.8 210.7 494.5 208L510.4 192.1C511.4 191.1 511.8 189.5 511.2 188.1L509.6 184Z" fill="#E7533F" fill-rule="nonzero" fill-opacity="1"/><path d="M515.5 133.4C509.6 135.8 502.9 139.9 496.4 146.4 484.5 158.3 481 172.7 480 180.9L486.2 187.1C494.4 186.1 508.9 182.7 520.8 170.8 527.3 164.3 531.4 157.7 533.8 151.8 532.5 148.5 529.9 144.6 526.2 140.8 522.6 137.3 518.8 134.7 515.5 133.4ZM520.6 155C518.3 157.3 514.5 157.3 512.1 155 509.8 152.7 509.8 148.9 512.1 146.5 514.4 144.2 518.2 144.2 520.6 146.5 522.9 148.9 522.9 152.7 520.6 155Z" fill="#E7533F" fill-rule="nonzero" fill-opacity="1"/><path d="M479.9 187.2C478.3 185.6 478.5 182.9 475.2 186.2 471.9 189.5 467 197 468.5 198.6 470.1 200.2 477.6 195.2 480.9 191.9 484.2 188.5 481.5 188.7 479.9 187.2Z" fill="#E7533F" fill-rule="nonzero" fill-opacity="1"/></g></g></g></g></g></svg>