<?xml version="1.0" encoding="UTF-8"?>
<svg xmlns="http://www.w3.org/2000/svg" version="1.1" viewBox="0 0 163.3 114.3">
  <defs>
    <style>
      .cls-1 {
        fill: #fff;
      }

      .cls-2 {
        fill: red;
      }
    </style>
  </defs>
  <!-- Generator: Adobe Illustrator 28.7.1, SVG Export Plug-In . SVG Version: 1.2.0 Build 142)  -->
  <g>
    <g id="Layer_1">
      <g>
        <path class="cls-2" d="M159.9,17.8c-1.9-7-7.4-12.6-14.4-14.4C132.7,0,81.6,0,81.6,0c0,0-51.1,0-63.8,3.4-7,1.9-12.6,7.4-14.4,14.4C0,30.6,0,57.2,0,57.2c0,0,0,26.6,3.4,39.3,1.9,7,7.4,12.6,14.4,14.4,12.7,3.4,63.8,3.4,63.8,3.4,0,0,51.1,0,63.8-3.4,7-1.9,12.6-7.4,14.4-14.4,3.4-12.7,3.4-39.3,3.4-39.3,0,0,0-26.6-3.4-39.3Z"/>
        <path class="cls-1" d="M65.3,81.6l42.4-24.5-42.4-24.5v49Z"/>
      </g>
    </g>
  </g>
</svg>